<svg xmlns="http://www.w3.org/2000/svg" version="1.1" xmlns:xlink="http://www.w3.org/1999/xlink" xmlns:svgjs="http://svgjs.dev/svgjs" width="1000" height="999" viewBox="0 0 1000 999"><g transform="matrix(1,0,0,1,-0.215743440233382,-0.21552769679306039)"><svg viewBox="0 0 343 343" data-background-color="#ffffff" preserveAspectRatio="xMidYMid meet" height="999" width="1000" xmlns="http://www.w3.org/2000/svg" xmlns:xlink="http://www.w3.org/1999/xlink"><g id="tight-bounds" transform="matrix(1,0,0,1,0.0740000000000407,0.07400000000001228)"><svg viewBox="0 0 342.85155851775386 342.85155851775386" height="342.85155851775386" width="342.85155851775386"><g><svg></svg></g><g><svg viewBox="0 0 342.85155851775386 342.85155851775386" height="342.85155851775386" width="342.85155851775386"><g><path d="M0 171.426c0-94.676 76.75-171.426 171.426-171.426 94.676 0 171.426 76.75 171.426 171.426 0 94.676-76.75 171.426-171.426 171.426-94.676 0-171.426-76.75-171.426-171.426zM171.426 329.828c87.483 0 158.403-70.919 158.402-158.402 0-87.483-70.919-158.403-158.402-158.403-87.483 0-158.403 70.919-158.403 158.403 0 87.483 70.919 158.403 158.403 158.402z" data-fill-palette-color="tertiary" fill="#8789fe" stroke="transparent"></path><ellipse rx="164.56874808852186" ry="164.56874808852186" cx="171.42577925887693" cy="171.42577925887693" fill="#8789fe" stroke="transparent" stroke-width="0" fill-opacity="1" data-fill-palette-color="tertiary"></ellipse></g><g transform="matrix(1,0,0,1,64.84655864529837,99.21951074794602)"><svg viewBox="0 0 213.1584412271571 144.41253702186182" height="144.41253702186182" width="213.1584412271571"><g><svg viewBox="0 0 213.1584412271571 144.41253702186182" height="144.41253702186182" width="213.1584412271571"><g><svg viewBox="0 0 213.1584412271571 144.41253702186182" height="144.41253702186182" width="213.1584412271571"><g><svg viewBox="0 0 213.1584412271571 144.41253702186182" height="144.41253702186182" width="213.1584412271571"><g id="textblocktransform"><svg viewBox="0 0 213.1584412271571 144.41253702186182" height="144.41253702186182" width="213.1584412271571" id="textblock"><g><svg viewBox="0 0 213.1584412271571 144.41253702186182" height="144.41253702186182" width="213.1584412271571"><g transform="matrix(1,0,0,1,0,0)"><svg width="213.1584412271571" viewBox="3.3499999046325684 -36.95000076293945 69.29000091552734 46.95000076293945" height="144.41253702186182" data-palette-color="#ffffff"><path d="M5.7-32.05L5.7-32.05Q3.35-32.05 3.35-34.1L3.35-34.1 3.35-34.9Q3.35-36.95 5.7-36.95L5.7-36.95Q8.05-36.95 8.05-34.9L8.05-34.9 8.05-34.1Q8.05-32.05 5.7-32.05ZM3.8 0L3.8-25.8 7.6-25.8 7.6 0 3.8 0ZM25.05 0L20.4 0Q18.35 0 17.42-0.93 16.5-1.85 16.5-3.9L16.5-3.9 16.5-22.45 12.7-22.45 12.7-25.8 14.95-25.8Q16.1-25.8 16.47-26.38 16.85-26.95 16.85-28.1L16.85-28.1 16.85-32.9 20.3-32.9 20.3-25.8 25.3-25.8 25.3-22.45 20.3-22.45 20.3-3.35 25.05-3.35 25.05 0ZM50.09 0L47.39 0Q43.7 0 43.7-3.7L43.7-3.7 43.7-4.2 43.2-4.2Q42.55-1.85 40.82-0.63 39.09 0.6 36.7 0.6L36.7 0.6Q32.95 0.6 31.09-1.3 29.24-3.2 29.24-6.9L29.24-6.9Q29.24-10.5 31.62-12.6 33.99-14.7 39.05-14.7L39.05-14.7 43.7-14.7 43.7-17.55Q43.7-20.4 42.42-21.75 41.14-23.1 38.39-23.1L38.39-23.1Q36.14-23.1 34.77-22.13 33.39-21.15 32.39-19.3L32.39-19.3 30.14-21.4Q31.14-23.5 33.34-24.93 35.55-26.35 38.55-26.35L38.55-26.35Q42.95-26.35 45.22-24.23 47.5-22.1 47.5-17.95L47.5-17.95 47.5-3.35 50.09-3.35 50.09 0ZM37.64-2.7L37.64-2.7Q38.95-2.7 40.07-3.15 41.2-3.6 41.99-4.33 42.8-5.05 43.24-5.98 43.7-6.9 43.7-7.9L43.7-7.9 43.7-11.8 38.95-11.8Q35.95-11.8 34.57-10.8 33.2-9.8 33.2-7.9L33.2-7.9 33.2-6.5Q33.2-4.55 34.39-3.63 35.59-2.7 37.64-2.7ZM64.99-12.8L68.94-25.8 72.64-25.8 62.44 6.6Q62.14 7.6 61.79 8.28 61.44 8.95 60.92 9.33 60.39 9.7 59.67 9.85 58.94 10 57.84 10L57.84 10 55.04 10 55.04 6.65 58.99 6.65 60.49 1.4 51.94-25.8 55.74-25.8 59.69-12.8 62.09-3.35 62.59-3.35 64.99-12.8Z" opacity="1" transform="matrix(1,0,0,1,0,0)" fill="#ffffff" class="wordmark-text-0" data-fill-palette-color="quaternary" id="text-0"></path></svg></g></svg></g></svg></g></svg></g><g></g></svg></g></svg></g></svg></g></svg></g><defs></defs></svg><rect width="342.85155851775386" height="342.85155851775386" fill="none" stroke="none" visibility="hidden"></rect></g></svg></g></svg>